<svg width="32" height="32" viewBox="0 0 32 32" fill="none" xmlns="http://www.w3.org/2000/svg">
<path d="M28.8782 2.24856C28.7067 2.62791 27.902 8.92536 26.8477 12.1003C27.7326 12.0546 28.9579 13.302 30.6455 14.6572C30.6455 14.6572 30.1942 2.69975 30.0062 2.32377C29.8182 1.94779 29.0497 1.86921 28.8782 2.24856Z" fill="#DA2C2E"/>
<path d="M2.97339 2.24856C3.14489 2.62791 3.94952 8.92536 5.00391 12.1003C4.11893 12.0546 2.89362 13.302 1.20609 14.6572C1.20609 14.6572 1.65731 2.69975 1.84532 2.32377C2.03333 1.94779 2.80189 1.86921 2.97339 2.24856Z" fill="#DA2C2E"/>
<path d="M19.9277 29.3118C18.4612 19.2971 13.3849 19.2971 12.0312 29.3119L15.9984 29.976L19.9277 29.3118Z" fill="#DA2C2E"/>
<path d="M13.4993 12.8298L11.168 9.48322L11.8824 8.27996V7.75353C14.8808 7.00402 16.629 6.98587 19.8165 7.75353V8.27996L20.5309 9.48322L18.2748 12.8298C16.4098 12.943 15.3642 12.935 13.4993 12.8298Z" fill="#DA2C2E"/>
<path d="M20.0195 7.79102C22.7184 8.73217 24.1111 9.77175 26.4502 12.416H27.2021L30.1348 14.7842L31.2627 15.1602C32.0751 16.0415 32.074 17.3925 31.7139 20.4629L30.1348 22.2676C30.0424 18.8429 29.6054 17.0296 27.916 13.9199C27.6193 13.7885 27.5472 13.8011 27.4277 14.1074C29.0685 16.3034 29.6161 18.2264 29.7217 23.3203L26.1113 27.5693C24.4647 28.2796 23.5062 28.6152 21.5996 29.0732L20.3203 29.1865C18.9776 23.8622 18.0928 21.7929 16.0342 21.5527C13.6892 21.6128 12.935 24.3178 11.6348 29.1865L10.5068 29.0732C8.52105 28.6604 7.46884 28.3279 5.69336 27.5693L2.27148 23.3203C2.46424 19.627 2.12125 17.4888 4.41504 14.1074C4.37111 13.8856 4.31321 13.8125 4.07617 13.8818C2.24668 16.9398 1.9921 18.7116 1.74512 22.2676L0.241211 20.4629C-0.158337 17.5555 -0.0640971 16.408 0.541992 15.1602L1.82031 14.7842C2.87736 13.7521 3.52169 13.2384 4.75391 12.416H5.54297C7.3581 10.0371 8.68273 8.99738 11.7471 7.79102V8.16699L10.8828 9.44531L13.4023 13.0547C15.4291 13.1703 16.5712 13.1762 18.5537 13.0547L20.8477 9.44531L20.0195 8.16699V7.79102ZM25.7939 14.8594C22.032 16.9854 19.9025 17.5006 16.0928 17.7549C11.4202 17.5501 9.1662 16.851 5.60156 14.8594C4.57103 16.7504 4.15363 17.89 4.13477 20.2744C6.4244 23.0258 7.25016 23.7353 8.27148 23.9971C11.9099 22.0715 13.821 21.0114 16.0928 21.0264C17.8533 20.9551 19.5024 21.7907 23.2363 23.9971C24.3605 23.6091 25.2725 22.7858 27.2598 20.2744C27.1503 18.0362 26.8103 16.8571 25.7939 14.8594Z" fill="#DA2C2E"/>
</svg>
