<svg id="visual" viewBox="0 0 960 540" xmlns="http://www.w3.org/2000/svg" version="1.1">
  <path d="M0 88L22.8 88.2C45.7 88.3 91.3 88.7 137 88C182.7 87.3 228.3 85.7 274 82.2C319.7 78.7 365.3 73.3 411.2 82.7C457 92 503 116 548.8 138.2C594.7 160.3 640.3 180.7 686 173.2C731.7 165.7 777.3 130.3 823 111.3C868.7 92.3 914.3 89.7 937.2 88.3L960 87L960 0L937.2 0C914.3 0 868.7 0 823 0C777.3 0 731.7 0 686 0C640.3 0 594.7 0 548.8 0C503 0 457 0 411.2 0C365.3 0 319.7 0 274 0C228.3 0 182.7 0 137 0C91.3 0 45.7 0 22.8 0L0 0Z" 
        fill="#EFF0EF" stroke-linecap="round" stroke-linejoin="miter"></path>
</svg>
